<?xml version="1.0" encoding="utf-8"?>
<!-- Generator: Adobe Illustrator 24.1.2, SVG Export Plug-In . SVG Version: 6.00 Build 0)  -->
<svg version="1.1" id="Warstwa_1" xmlns:figma="http://www.figma.com/figma/ns"
	 xmlns="http://www.w3.org/2000/svg" xmlns:xlink="http://www.w3.org/1999/xlink" x="0px" y="0px" viewBox="0 0 85.5 24.1"
	 style="enable-background:new 0 0 85.5 24.1;" xml:space="preserve">
<style type="text/css">
	.st0{enable-background:new    ;}
	.st1{fill:#078529;}
</style>
	<text transform="matrix(1 0 0 1 640 511.9999)" style="font-family:'ArialMT'; font-size:12px;">Lorm</text>
	<g class="st0">
	<path class="st1" d="M0.8,13.3L4,13c0.2,1.1,0.6,1.8,1.2,2.3S6.5,16,7.4,16c1,0,1.8-0.2,2.4-0.7c0.5-0.4,0.8-1,0.8-1.5
		c0-0.4-0.1-0.7-0.3-1c-0.2-0.3-0.6-0.5-1.2-0.7c-0.4-0.1-1.2-0.4-2.6-0.7c-1.7-0.4-2.9-1-3.6-1.6c-1-0.9-1.5-2-1.5-3.2
		c0-0.8,0.2-1.6,0.7-2.3c0.5-0.7,1.1-1.3,2-1.6S6,2.2,7.2,2.2c2,0,3.5,0.4,4.5,1.3c1,0.9,1.5,2.1,1.6,3.5l-3.2,0.1
		C10,6.4,9.7,5.8,9.2,5.4C8.8,5,8.1,4.9,7.2,4.9C6.3,4.9,5.5,5.1,5,5.4C4.6,5.7,4.5,6,4.5,6.4c0,0.4,0.2,0.7,0.5,1
		c0.4,0.3,1.4,0.7,3,1.1c1.6,0.4,2.7,0.8,3.5,1.2c0.8,0.4,1.3,0.9,1.8,1.6c0.4,0.7,0.6,1.5,0.6,2.5c0,0.9-0.3,1.8-0.8,2.6
		s-1.2,1.4-2.2,1.8c-0.9,0.4-2.1,0.6-3.5,0.6c-2,0-3.6-0.5-4.7-1.4C1.7,16.4,1,15.1,0.8,13.3z"/>
		<path class="st1" d="M26.8,12.6l3.1,1c-0.5,1.7-1.3,3-2.4,3.9s-2.5,1.3-4.3,1.3c-2.1,0-3.9-0.7-5.2-2.2c-1.4-1.5-2.1-3.4-2.1-6
		c0-2.7,0.7-4.7,2.1-6.2c1.4-1.5,3.2-2.2,5.4-2.2c2,0,3.5,0.6,4.8,1.7c0.7,0.7,1.3,1.7,1.6,2.9l-3.2,0.8c-0.2-0.8-0.6-1.5-1.2-2
		C24.9,5.2,24.2,5,23.3,5c-1.2,0-2.1,0.4-2.9,1.3c-0.7,0.9-1.1,2.2-1.1,4.1c0,2,0.4,3.5,1.1,4.3c0.7,0.9,1.7,1.3,2.8,1.3
		c0.9,0,1.6-0.3,2.2-0.8C26.1,14.6,26.5,13.8,26.8,12.6z"/>
		<path class="st1" d="M32.6,18.5v-16h3.2v16H32.6z"/>
		<path class="st1" d="M38.9,18.5v-16h5.2c2,0,3.2,0.1,3.8,0.2c0.9,0.2,1.7,0.8,2.3,1.6c0.6,0.8,0.9,1.8,0.9,3.1c0,1-0.2,1.8-0.5,2.5
		c-0.4,0.7-0.8,1.2-1.4,1.6c-0.5,0.4-1.1,0.6-1.7,0.8c-0.8,0.2-1.9,0.2-3.4,0.2h-2.1v6H38.9z M42.1,5.2v4.5h1.8
		c1.3,0,2.1-0.1,2.6-0.3c0.4-0.2,0.8-0.4,1-0.8c0.2-0.4,0.4-0.8,0.4-1.2c0-0.6-0.2-1.1-0.5-1.4S46.5,5.4,46,5.3
		c-0.4-0.1-1.2-0.1-2.3-0.1H42.1z"/>
		<path class="st1" d="M53.2,10.6c0-1.6,0.2-3,0.7-4.1c0.4-0.8,0.9-1.5,1.5-2.2s1.3-1.1,2.1-1.4c1-0.4,2.1-0.6,3.4-0.6
		c2.4,0,4.2,0.7,5.7,2.2s2.1,3.5,2.1,6.1c0,2.6-0.7,4.6-2.1,6.1c-1.4,1.5-3.3,2.2-5.6,2.2c-2.4,0-4.3-0.7-5.7-2.2
		C53.9,15.1,53.2,13.1,53.2,10.6z M56.5,10.5c0,1.8,0.4,3.2,1.3,4.1c0.8,0.9,1.9,1.4,3.2,1.4c1.3,0,2.3-0.5,3.2-1.4
		c0.8-0.9,1.2-2.3,1.2-4.2c0-1.8-0.4-3.2-1.2-4.1C63.3,5.4,62.3,5,60.9,5s-2.4,0.5-3.2,1.4C56.9,7.2,56.5,8.6,56.5,10.5z"/>
		<path class="st1" d="M71.2,18.5v-16h5.2c2,0,3.2,0.1,3.8,0.2c0.9,0.2,1.7,0.8,2.3,1.6c0.6,0.8,0.9,1.8,0.9,3.1c0,1-0.2,1.8-0.5,2.5
		c-0.4,0.7-0.8,1.2-1.4,1.6c-0.5,0.4-1.1,0.6-1.7,0.8c-0.8,0.2-1.9,0.2-3.4,0.2h-2.1v6H71.2z M74.4,5.2v4.5h1.8
		c1.3,0,2.1-0.1,2.6-0.3c0.4-0.2,0.8-0.4,1-0.8s0.4-0.8,0.4-1.2c0-0.6-0.2-1.1-0.5-1.4c-0.3-0.4-0.8-0.6-1.3-0.7
		c-0.4-0.1-1.2-0.1-2.3-0.1H74.4z"/>
</g>
</svg>
